<?xml version="1.0" encoding="UTF-8"?>
<svg id="Layer_1" data-name="Layer 1" xmlns="http://www.w3.org/2000/svg" viewBox="0 0 271.92 161.92">
  <g>
    <g>
      <path d="M110.98,47.58c5.1-.94,9-5.56,12.13-9.41,2.92-3.59,7.15-11.54,10.08-14.04,1.05-.9,4.8-2.12,4.94-.32.03.33-2.09,4.31-2.13,6.28-.12,6.62,4.7,14.16,1.49,21.16,5.32-3.5,9.41-8.8,13.19-13.88,2.4-3.22,7.64-12.4,10.61-14.06.68-.38,3.59-1.09,3.84-.2.36,1.24-1.01,2.54-1.41,3.73-2.42,7.24,4.32,16.85.65,24.4.46.37,3.51-2.25,4.06-2.75,7.75-7.17,9.49-21.08,22.65-22.28,12.58-1.15,9.55,14.12,6.08,21.35,4.07-1.17,8-4.68,10.67-7.93,3.07-3.73,3.91-8.43,4.97-13.08,8.75-2.97,5.27,5.32,3.51,9.96,3.5-4.45,9.22-12.18,15.85-10.15,4.12,1.27,2.07,7.61,1.46,10.51l2.21-3.12c3.24-3.37,7.22-7.61,12.33-7.59,2.16,0,4.42,1.36,4.89,3.61.99,4.75-5.01,14.74-6.36,19.99-.24.93-1.26,3.93.05,4.37,2.42.82,6.36-3.26,7.86-4.93,1.19-1.33,4.21-6.3,4.96-6.83,1.26-.9,2.9-.81,2.25,1.15-1.49,4.5-10.72,14.16-15.57,14.99-2.27.39-5.79-.31-6.56-2.84-1.53-4.97,3.93-13.81,5.63-18.71s1.59-8.6-4.29-4.66c-7.58,5.08-11.21,17.29-14.37,25.4-1.57,1.52-6.82.72-6.22-2.14,1.97-4.92,4.16-9.79,5.83-14.82.97-2.92,4.7-12.3-2.23-8.86-5.15,2.56-9.6,11.36-11.84,16.52-1.11,2.55-1.92,6.35-3.17,8.61-1.48,2.69-6.4,1.54-6.55-.44-.19-2.57,3.62-9.15,4.26-11.98-3.19,3.16-6.35,5.53-10.96,6.17-.55.08-1.27-.37-1.5-.24-.27.15-2.73,3.74-3.93,4.74-7.81,6.47-18.28,3.42-17.85-7.35-5.91,5.83-15.76,14.5-24.56,9.28-2.7-1.6-5.88-6.66-2.52-8.94,1.9-1.28,3.17,2.94,4.27,4.25,3.06,3.68,7.3,3.16,8.73-1.57,1.78-5.91-1.07-12.53-1.18-18.49-5.38,7.05-10.44,14.54-17.32,20.24-4.73,3.92-8.58,6.61-15.09,5.9-3.98-.43-10.38-5.58-7.02-9.6,2.37-2.83,3.23,1.83,4.64,3.51,2.92,3.48,7.24,3.4,8.85-1.08,2.19-6.11-.73-13.12-.94-19.35-4.78,5.48-9.73,16.28-17.2,18.15-.95.24-4.15.32-4.34.43-.46.29-2.3,3.15-3.32,4.06-7.32,6.53-18.9,5.11-19.34-6.08-3.74,4.98-11.75,12.62-18.35,8.41-6.17-3.93-1.78-14.95.12-20.39,2.89-8.26,10.39-26.73,18.41-30.57,3.33-1.6,7.88-1.8,7.98,2.89.15,6.97-7.77,18.57-12.37,23.65-1.89,2.09-7.85,6.79-8.8,8.51-.7,1.28-1.78,6.16-1.88,7.69-.82,12.64,12.54-.07,15.25-4.26,1.02-1.58,1.42-3.62,2.35-5.38,2.84-5.36,9.45-12.26,15.75-12.97,12.92-1.45,9.99,13.88,6.41,21.32ZM76.6,34.93c5.18-4.98,14.09-18.59,14.63-25.73.21-2.73-3.3.43-4.01,1.18-3.59,3.86-10.64,19.61-11.96,24.87-.05.2-.11.6.18.54.3-.39.82-.54,1.16-.86ZM108.65,30.02c-3.99-4.37-11.2,5.33-12.83,8.48-1.89,3.63-5.67,13.28-1.17,16.03,4.07,2.49,10.84-3.85,10.27-5.1-.37-.81-1.59-.99-1.15-2.58.56-2.02,3.06-1.42,3.72-2.2,1.53-1.81,2.92-12.7,1.17-14.62ZM193.41,44.58c1.06-.63,5.75-16.8-2.25-15.32-5.42,1-11.86,12.7-12.43,17.77-.5,4.51.51,9.72,6.26,7.73,1.47-.51,5.19-3.74,5.52-5.16.05-.22-2.82-1.2-.91-3.85,1.24-1.72,3.05-.73,3.8-1.17Z"/>
      <path d="M51.32,30.65c-.63.6,1.89,1.27,2.32,1.54,12.93,7.95,4.7,23.63-6.64,28.2-9.18,3.69-18.17,1.81-26.38-3.17-4.44,4.51-12.22,6.65-17.8,2.96-3.98-2.63-3.61-8.65.25-6.88.67.31,1.61,2.18,2.61,2.92,2.63,1.96,5.49,1.71,8.2.14,7.84-4.52,13.49-24.99,17.02-33.43,1.76-4.21,6.56-14.9,12.15-14.41,2.3.2.57,1.07-.12,2.12-.99,1.5-1.96,3.39-2.71,5.03-5.79,12.74-8.11,27.55-16.86,38.74,9.69,8.11,26.41,4.89,29.34-8.21,1.84-8.21-1.65-12.67-9.66-13.7-1.4-.18-5.54.49-5.72-1.68-.29-3.39,6.88-1.59,8.65-1.66,5.22-.22,11.7-7.67,12.32-12.72,2.31-18.73-25.88-13.19-35.43-6.7-8.1,5.5-16.07,19.1-4.68,25.53-6.97,7.18-12.32.26-11.79-7.75C7.75,6.75,44.86-7.94,60.53,4.67c9.23,7.43,3.42,19.94-5.52,24.68-.94.5-3.55,1.15-3.69,1.29Z"/>
    </g>
    <g>
      <path d="M180.08,94.48c4.24,4.45.52,14.87-1.71,19.76.89-.47,1.93-.59,2.83-1.04,6.97-3.43,8.93-12.12,15.41-17,11.01-8.3,19.36-2.4,15.83,11.04-.61,2.33-1.76,4.46-2.76,6.62,3.95-.83,10.53-6.61,12.16-10.12.58-1.25,1.14-3.31,1.56-4.7.45-1.48.87-4.94,1.37-5.9s5.01-1.01,5.47.34c.9,2.67-1.24,6.36-1.78,8.96,2.97-3.53,6.9-9.45,11.96-9.94,7.05-.69,6.35,5.98,4.61,10.68,3.38-4.29,8.07-10.86,14.18-10.71,4.74.12,5.39,4.13,4.25,7.96-1.46,4.88-4.62,9.96-6.01,14.99-.68,2.47-1.74,5.38,2.21,4.05,3.71-1.26,7.93-8.67,10.4-11.69.71-.41,1.84-.25,1.85.73,0,.63-3.74,6.12-4.43,7.01-3.01,3.86-10.49,11.45-15.75,7.66-4.61-3.33,1.64-13.33,3.29-17.16.77-1.77,4.54-10.06-.06-8.93-7.28,1.79-14.84,19.01-16.56,25.82-.83,1.67-5.37.92-5.85-.44-.96-2.74,4.61-13.34,5.75-16.6,4.63-13.21-3.25-8.96-8.32-2.06-4.19,5.71-6.68,12.71-8.88,19.39-1.15,1.51-6.11.74-6.12-1.03,0-2.08,4.25-10.79,3.88-11.25-2.7,2.47-5.16,4.75-8.82,5.73-1,.27-2.1-.03-2.96.35s-1.71,2.11-2.4,2.75c-8.51,7.93-19.16,5.22-18.23-7.36-2.25,1.9-4.71,3.67-7.63,4.33-.95.22-2.33-.16-3.04.27-.66.4-3.15,3.77-4.45,4.75-7.22,5.47-16.09,1.71-16.18-7.52-4.09,4.46-12.13,12.9-18.76,8.64-4.11-2.65-3.1-8.41-2.12-12.4,2.27-9.24,12.28-34.21,20.92-38.37,2.89-1.39,7.78-2.12,8.08,2.18.52,7.64-8.83,20.76-13.99,26.15-1.62,1.69-6.29,5.12-7.17,6.45-1.26,1.91-2.82,8.95-1.96,11.14,2.01,5.16,8.51-.51,10.79-2.67,6.11-5.77,6.93-12.94,13.06-18.24,3.8-3.29,11.89-7.03,16.08-2.63ZM160.32,74.1c-3.03.28-5.05,3.41-6.56,5.78-4.41,6.94-6.89,15.03-10.01,22.58,4.03-3.42,7.47-7.53,10.24-12.04,1.3-2.11,7.93-14.65,6.33-16.32ZM174.88,95.29c-7.23-.15-15.08,16.96-13.1,23.21,1.19,3.74,5.61,2.64,7.94.53,1.25-1.14,5.44-7.66,6.14-9.32,1.26-2.98,2.6-9.07,1.67-12.12-.48-1.58-.91-2.26-2.66-2.29ZM204.42,95.54c-5.22,1.09-11.4,13.29-11.95,18.25-.49,4.47,1.11,8.93,6.3,6.67,6.41-2.8,11.25-16.03,10.08-22.52-.44-2.46-2.15-2.87-4.43-2.4Z"/>
      <path d="M117.24,96.93l4.9,2.28c10.96,6.53,6.6,20.06-2.94,25.63-9.84,5.75-20.8,3.53-29.45-3.19-1.9,1.38-3.21,3.3-5.39,4.43-3.38,1.76-7.74,2.03-10.91-.27-1.33-.97-2.19-2.27-1.86-4.01.56-2.96,3.35.59,4.85,1.02,7.51,2.19,12.05-9.39,14.62-14.72,3.48-7.23,9.04-24.44,14.22-29.23,1.38-1.27,4.67-3.83,6.45-2.39-8.97,13.03-10.54,29.59-19.86,42.36,6.33,4.92,13.77,7.58,21.36,3.69,9.33-4.78,13.28-20.39.44-22.93-2.39-.47-6.23-.05-7.92-.54-2.65-.77-.51-4.01,2.5-4,4.01.01,4.88.6,8.9-1.38,6.29-3.09,8.9-8.17,7.69-15.18-1.83-10.63-20.8-8-28.02-5.14-10.66,4.22-23.7,19.15-9.39,27.44-8.43,6.91-13.59-2.24-11.67-10.57,4.15-18,36.95-30.01,51.42-18.86,11.48,8.85,2.18,24.05-9.91,25.57Z"/>
      <path d="M45.85,92.2c-.67,1.06,3.97,15.39,4.92,15.41,2.16-1.8,6.41-8.06,4.4-10.66-.66-.85-3.73-1.38-2.4-3.17,1.1-1.48,5.36-.76,7.2-.9,1.64-.13,3.27-.94,4.98-.73.78,4.05-2.98,5.21-6.24,5.54.43,3.5-1.25,6.69-3.34,9.37-1.7,2.17-4.37,2.53-1.66,5.36,2.18,2.28,5.7,2.83,8.66,2.2-2.03,7.46-11.02,5.28-14.22-.34-5.16,3.68-11.72,6.5-17.79,3.08-8.18-4.61-4.46-15.87,1.64-20.78,1.34-1.08,7.85-4.39,8.1-4.79.59-.96-.23-3.27-.21-4.61.1-6.77,4.53-13.88,12.01-13.46,2.73.15,5.49,1.88,5.98,4.71,1.22,7.14-6.43,11.42-12.01,13.77ZM45.06,88.83c2.95-1.31,9.24-5.49,9.24-9.02,0-4.67-4.99-4.14-7.2-1.27-.52.67-2.05,4.27-2.05,4.95v5.34ZM41,95.09c-.19-.23-4.52,2.94-4.96,3.33-11.21,9.91-1.25,22.79,10.45,13.02-2.27-5.27-4.61-10.61-5.5-16.35Z"/>
    </g>
  </g>
  <g>
    <path d="M98.59,153.89c0,4.43-3.59,8.01-8.01,8.01s-8.01-3.59-8.01-8.01,3.59-8.01,8.01-8.01,8.01,3.59,8.01,8.01ZM95.62,153.88c0-2.81-2.28-5.09-5.09-5.09s-5.09,2.28-5.09,5.09,2.28,5.09,5.09,5.09,5.09-2.28,5.09-5.09Z"/>
    <path d="M114.29,146.28c3.62.51,5.2,3.88,3.89,7.21-.5,1.28-2.25,2.04-2.26,2.2-.06.8,3.6,5.49,3.34,5.68-1-.15-2.87.32-3.69-.18-.6-.37-1.88-4.02-2.73-4.64s-2.14-.26-3.16-.34v5.16h-2.95v-15.1c2.36.24,5.27-.32,7.55,0ZM109.68,153.65c1.62-.05,5.47.49,5.89-1.67.72-3.69-3.42-3.13-5.89-3.12v4.79Z"/>
    <path d="M135.41,146.33l5.94,15.05c-.66-.13-2.99.21-3.28-.03-.23-.2-.28-2.84-1.38-3.22-.65-.22-5.81-.16-6.06.17-1.56,2.03.34,3.83-4.38,3.08l5.93-15.05h3.22ZM135.83,155.48c.2-.19-.97-3.23-1.19-3.77-.2-.5-.45-1.66-1.01-1.75l-1.84,5.52h4.05Z"/>
    <g>
      <path d="M214.63,153.89c0,4.43-3.59,8.03-8.03,8.03s-8.03-3.59-8.03-8.03,3.59-8.03,8.03-8.03,8.03,3.59,8.03,8.03ZM211.71,153.87c0-2.81-2.27-5.08-5.08-5.08s-5.08,2.27-5.08,5.08,2.27,5.08,5.08,5.08,5.08-2.27,5.08-5.08Z"/>
      <path d="M190.7,156.59c-.18.75,1.47,1.82,1.47,2.02,0,.34-2.24,2.09-2.8,2.35-7.17,3.34-14.68-3.61-11.09-10.72,2.6-5.15,10.03-5.58,13.89-1.57-2.77,3.73-2.62.63-5.36.21-8.36-1.27-8.54,11.67.31,9.83,1.56-.32,2.18-1.77,3.58-2.12Z"/>
    </g>
    <path d="M58.86,146.28v2.95s-6.99-.37-6.99-.37v4.05s5.89,0,5.89,0c-.35.45-.24,2.58-.37,2.58h-5.52v5.89h-2.95v-15.1h9.94Z"/>
    <path d="M152.04,146.28v11.6c0,.06-.64.92.18.92h6.44v2.58h-9.94l.09-14.56c.16-.89,2.53-.45,3.22-.54Z"/>
    <path d="M69.18,146.28v11.97s.51.55.55.55h6.44c.06.52.1,2.58-.55,2.58h-9.39v-15.1s2.95,0,2.95,0Z"/>
    <circle cx="221" cy="159.7" r="1.99"/>
  </g>
</svg>